<?xml version="1.0" standalone="no"?>
<!DOCTYPE svg PUBLIC "-//W3C//DTD SVG 1.1//EN" "http://www.w3.org/Graphics/SVG/1.1/DTD/svg11.dtd" >
<svg xmlns="http://www.w3.org/2000/svg">
<metadata>Generated by IcoMoon</metadata>
<defs>
<font id="icomec" horiz-adv-x="1024">
<font-face units-per-em="1024" ascent="960" descent="-64" />
<missing-glyph horiz-adv-x="1024" />
<glyph unicode="&#x20;" horiz-adv-x="512" d="" />
<glyph unicode="&#xe900;" glyph-name="ico-descripcion" d="M941.852 456.647l-145.408 145.636c-4.63 6.688-10.301 12.287-16.842 16.696l-0.225 0.143-218.226 217.998c-12.435 12.888-29.859 20.891-49.152 20.891s-36.717-8.003-49.132-20.871l-0.020-0.020-217.998-218.453c-6.716-4.614-12.376-10.202-16.927-16.631l-0.14-0.208-145.636-145.636c-12.55-12.592-20.31-29.966-20.31-49.152 0-38.397 31.078-69.535 69.453-69.632h84.205v-230.741c0-37.703 30.564-68.267 68.267-68.267v0h456.476c37.703 0 68.267 30.564 68.267 68.267v0 231.196h84.196c38.383 0.097 69.462 31.235 69.462 69.632 0 19.186-7.76 36.56-20.312 49.154l0.002-0.002z" />
<glyph unicode="&#xe901;" glyph-name="ico-espacios" d="M512 853.049c-165.564-0.388-299.66-134.564-299.918-300.121v-0.025c0-166.343 163.385-390.94 248.946-497.209 12.111-14.901 30.439-24.344 50.972-24.344s38.861 9.443 50.877 24.223l0.095 0.121c85.561 106.268 248.946 330.866 248.946 497.209-0.258 165.582-134.354 299.758-299.881 300.146h-0.037zM423.481 527.644c-48.888 0-88.519 39.631-88.519 88.519s39.631 88.519 88.519 88.519c48.888 0 88.519-39.631 88.519-88.519v0c0-48.888-39.631-88.519-88.519-88.519v0z" />
<glyph unicode="&#xe902;" glyph-name="ico-resultados" d="M586.183 804.58l68.267-136.533c12.077-24.088 34.833-41.279 61.884-45.452l0.466-0.059 150.642-22.756c40.194-6.037 70.661-40.328 70.661-81.735 0-23.282-9.632-44.314-25.128-59.329l-0.022-0.021-109.682-105.131c-14.931-14.842-24.172-35.394-24.172-58.104 0-5.364 0.516-10.608 1.5-15.685l-0.083 0.516 25.714-149.959c0.737-4.15 1.158-8.927 1.158-13.803 0-45.746-37.084-82.83-82.83-82.83-14.069 0-27.319 3.508-38.923 9.697l0.446-0.217-134.713 70.77c-11.141 6.020-24.386 9.558-38.457 9.558s-27.316-3.538-38.894-9.773l0.437 0.215-134.713-70.77c-11.158-5.972-24.408-9.479-38.477-9.479-45.746 0-82.83 37.084-82.83 82.83 0 4.876 0.421 9.653 1.229 14.298l-0.071-0.495 25.714 149.959c0.901 4.561 1.417 9.805 1.417 15.169 0 22.71-9.241 43.262-24.168 58.1l-0.004 0.004-110.82 105.813c-15.518 15.036-25.15 36.068-25.15 59.35 0 41.407 30.467 75.698 70.206 81.679l0.455 0.056 150.642 22.756c27.517 4.233 50.273 21.423 62.132 45.032l0.218 0.479 68.267 136.533c14.048 26.91 41.75 44.964 73.668 44.964 32.188 0 60.088-18.36 73.798-45.179l0.217-0.468z" />
<glyph unicode="&#xe903;" glyph-name="ico-sectores" d="M410.51 149.675h202.752c31.293 0 56.661-25.368 56.661-56.661s-25.368-56.661-56.661-56.661h-202.752c-31.293 0-56.661 25.368-56.661 56.661s25.368 56.661 56.661 56.661zM410.51 291.442h202.752c31.293 0 56.661-25.368 56.661-56.661s-25.368-56.661-56.661-56.661h-202.752c-31.293 0-56.661 25.368-56.661 56.661s25.368 56.661 56.661 56.661zM500.622 847.588c-149.577-7.316-269.366-125.37-279.389-273.531l-0.049-0.901c-0.358-5.399-0.562-11.705-0.562-18.058 0-97.187 47.71-183.23 120.987-235.986l0.862-0.591h113.778v135.168l35.044 70.315c4.032 8.017 12.194 13.421 21.618 13.421s17.585-5.404 21.555-13.283l0.063-0.138 34.361-70.315v-134.030h113.778c74.151 53.486 121.854 139.638 121.854 236.932 0 160.865-130.407 291.271-291.271 291.271-4.441 0-8.859-0.099-13.251-0.296l0.624 0.022z" />
<glyph unicode="&#xe904;" glyph-name="ico-video" d="M512 823.156c-472.592 0-480.97-42.822-480.97-375.156s8.378-375.156 480.97-375.156 480.97 42.822 480.97 375.156-8.378 375.156-480.97 375.156zM667.152 431.554l-217.212-100.848c-3.401-2.201-7.559-3.51-12.022-3.51-12.339 0-22.342 10.003-22.342 22.342 0 1.129 0.084 2.238 0.245 3.322l-0.015-0.122v189.905c-0.147 0.962-0.23 2.071-0.23 3.2 0 12.339 10.003 22.342 22.342 22.342 4.463 0 8.621-1.309 12.11-3.563l-0.088 0.053 217.212-100.848c17.998-8.688 17.998-22.962-1.241-31.341z" />
<glyph unicode="&#xe905;" glyph-name="cifras-peliculas" d="M879.177 601.234l117.394-117.303v117.303h-117.394zM698.514 601.234h-153.051l194.194-194.194h-180.663l-194.194 194.194h-162.651l194.194-194.194h-180.663l-167.68 167.771c-1.966-4.699-3.109-10.159-3.109-15.887 0-0.008 0-0.016 0-0.023v0.001-527.451c0-29.388 23.824-53.211 53.211-53.211v0h845.257c29.367 0.052 53.159 23.844 53.211 53.206v375.594h-103.771zM836.48 917.76l-161.006-23.314-164.389-220.069 161.006 23.314 164.389 220.069zM496.64 868.48l-151.406-21.943-164.389-220.069 151.497 22.034 164.297 219.977zM985.417 786.286l-14.263 98.286-120.229-161.006 98.651 14.354c20.658 3.039 36.336 20.641 36.336 41.905 0 2.281-0.18 4.519-0.528 6.702l0.032-0.241zM166.4 820.663l-102.4-14.903c-20.631-3.016-36.295-20.588-36.295-41.819 0-2.181 0.165-4.323 0.484-6.415l-0.029 0.234 12.8-90.331 1.737-12.617 42.514 56.869z" />
<glyph unicode="&#xe906;" glyph-name="cifras-speakers" d="M911.543 530.286l-377.966 377.966c-10.113 9.39-23.708 15.151-38.648 15.151-31.408 0-56.869-25.461-56.869-56.869 0-14.941 5.762-28.535 15.184-38.684l-0.033 0.036 378.057-377.966c10.276-10.264 24.465-16.612 40.137-16.612 31.367 0 56.795 25.428 56.795 56.795 0 15.695-6.366 29.903-16.657 40.182l-0.001 0.001zM425.143 775.68l-2.834-14.263c-22.636-105.534-69.771-197.662-135.245-273.517l0.663 0.785 205.989-205.257c74.504 65.011 166.014 112.448 266.948 134.835l4.047 0.754 14.263 2.834zM249.966 446.171l-140.251-140.526c-15.419-15.42-24.956-36.722-24.956-60.251s9.537-44.831 24.956-60.251l80.274-80.274c15.41-15.441 36.715-24.994 60.251-24.994s44.842 9.553 60.25 24.992l140.253 140.527zM270.080 225.28c-4.976-4.421-11.566-7.121-18.787-7.121-15.653 0-28.343 12.69-28.343 28.343 0 7.153 2.649 13.686 7.020 18.673l-0.028-0.032 40.137 40.137c5.136 5.136 12.231 8.313 20.069 8.313 15.675 0 28.381-12.707 28.381-28.381 0-7.837-3.177-14.933-8.313-20.069v0zM569.326 89.691l38.583 38.309c15.436 15.395 24.986 36.685 24.986 60.206s-9.55 44.81-24.984 60.204l-28.711 28.711c-17.331-11.754-32.231-23.111-46.49-35.201l0.776 0.641 34.286-34.286c5.145-5.132 8.329-12.228 8.329-20.069s-3.183-14.937-8.328-20.068l-0.001-0.001-39.223-39.314-57.783 55.954-80.274-80.274 128.823-124.526c10.276-10.264 24.465-16.612 40.137-16.612 31.367 0 56.795 25.428 56.795 56.795 0 15.695-6.366 29.903-16.657 40.182l-0.001 0.001zM683.977 932.571c0 0 0 0 0 0-15.653 0-28.343-12.69-28.343-28.343 0-0.032 0-0.064 0-0.096v0.005-56.777c0.877-14.995 13.252-26.823 28.389-26.823s27.511 11.828 28.385 26.745l0.004 0.077v56.777c0 15.704-12.73 28.434-28.434 28.434v0zM911.177 705.463h-56.869c-14.995-0.877-26.823-13.252-26.823-28.389s11.828-27.511 26.745-28.385l0.077-0.004h56.869c14.995 0.877 26.823 13.252 26.823 28.389s-11.828 27.511-26.745 28.385l-0.077 0.004zM874.423 867.474c-5.142 5.123-12.235 8.291-20.069 8.291s-14.927-3.168-20.069-8.292l0.001 0.001-57.143-56.777c-5.136-5.136-8.313-12.231-8.313-20.069 0-15.675 12.707-28.381 28.381-28.381 7.837 0 14.933 3.177 20.069 8.313l56.777 56.777c5.233 5.16 8.475 12.327 8.475 20.252 0 7.743-3.095 14.762-8.114 19.89l0.005-0.005z" />
<glyph unicode="&#xe907;" glyph-name="cifras-artistas" d="M968.503 763.977c17.801 17.412 28.839 41.677 28.839 68.519 0 52.918-42.899 95.817-95.817 95.817-26.842 0-51.107-11.037-68.502-28.821l-0.017-0.018-430.263-430.171 135.589-135.589zM152.046-31.451c49.829-1.097 122.149 18.834 183.771 90.057 3.931 4.48 7.497 9.143 10.88 13.623 18.037 25.543 28.829 57.321 28.829 91.62 0 2.184-0.044 4.357-0.13 6.519l0.010-0.31c-1.545 38.081-17.42 72.18-42.34 97.289l0.009-0.009c-20.901 20.314-49.466 32.84-80.956 32.84-0.693 0-1.384-0.006-2.074-0.018l0.104 0.001c-45.713-1.189-86.687-20.535-116.159-51.060l-0.047-0.049c-46.72-46.811-46.354-86.674-45.714-121.874s0.64-64-39.497-109.714l-21.303-23.589c36.803-15.566 79.561-24.827 124.424-25.324l0.194-0.002zM424.869 220.343l73.143 73.143-135.771 135.314-75.063-75.063c33.983-6.856 63.423-23.037 86.418-45.732l-0.018 0.018c23.62-23.69 41.387-53.229 50.939-86.256l0.353-1.424z" />
<glyph unicode="&#xe908;" glyph-name="cifras-bandas" d="M835.931 430.354c-23.771 8.411-53.851 4.023-75.063 22.217-23.040 19.84-33.28 48.731-51.109 72.503-18.164 22.377-42.437 39.142-70.278 47.813l-1.036 0.278c-18.208 6.239-39.186 9.841-61.005 9.841-16.747 0-32.999-2.122-48.501-6.112l1.345 0.294c-6.217-1.554-64.549-25.783-65.189-25.234-48 48.091-130.377 130.194-178.469 178.286 0.573 3.376 0.9 7.264 0.9 11.23 0 19.284-7.744 36.76-20.291 49.487l0.008-0.008-78.171 78.354c-12.547 11.809-29.496 19.065-48.139 19.065-38.83 0-70.309-31.478-70.309-70.309 0-18.643 7.256-35.592 19.098-48.175l-0.034 0.036 78.354-78.354c12.734-12.547 30.227-20.296 49.529-20.296 4.731 0 9.353 0.465 13.823 1.353l-0.449-0.074 177.28-177.28c-8.826-16.607-17.853-36.841-25.6-57.696l-1.188-3.652c-3.689-14.387-5.806-30.903-5.806-47.914 0-7.534 0.415-14.972 1.225-22.291l-0.081 0.902c8.051-67.3 48.81-123.573 105.687-153.080l1.102-0.52c34.286-17.28 31.451-30.72 40.503-66.103 27.299-104.655 120.977-180.648 232.403-180.648 132.447 0 239.817 107.37 239.817 239.817 0 103.971-66.164 192.489-158.685 225.746l-1.673 0.525zM616.503 250.057c-0.081 0-0.178 0-0.274 0-52.767 0-95.543 42.776-95.543 95.543s42.776 95.543 95.543 95.543c52.767 0 95.543-42.776 95.543-95.542v0c0-52.767-42.776-95.543-95.543-95.543v0zM839.040 223.177l-103.68-103.314c-3.552-3.613-8.493-5.853-13.956-5.853-0.076 0-0.151 0-0.227 0.001h0.012c-5.555 0.030-10.584 2.257-14.267 5.855l0.004-0.004c-3.593 3.659-5.811 8.679-5.811 14.217s2.218 10.558 5.814 14.22l103.403 103.403c3.659 3.593 8.679 5.811 14.217 5.811s10.558-2.218 14.22-5.814l-0.003 0.003c3.732-3.612 6.049-8.667 6.049-14.263s-2.317-10.651-6.043-14.258l-0.005-0.005zM616.229 421.943c-0.027 0-0.059 0-0.091 0-42.163 0-76.343-34.18-76.343-76.343s34.18-76.343 76.343-76.343c42.163 0 76.343 34.18 76.343 76.343v0c-0.052 42.11-34.149 76.239-76.242 76.343h-0.010zM560.091 345.6c0 31.105 25.215 56.32 56.32 56.32s56.32-25.215 56.32-56.32c0-31.105-25.215-56.32-56.32-56.32v0c-31.105 0-56.32 25.215-56.32 56.32v0zM228.571 931.2c-0.827 0.979-2.056 1.596-3.428 1.596-1.721 0-3.216-0.971-3.966-2.394l-0.012-0.024-21.669-34.377c-0.606-1.111-0.962-2.432-0.962-3.837 0-2.032 0.745-3.89 1.976-5.316l-0.009 0.010 10.789-10.789c1.388-1.257 3.239-2.026 5.269-2.026 1.424 0 2.76 0.379 3.912 1.041l-0.038-0.020 34.926 20.937c1.35 0.789 2.242 2.231 2.242 3.881 0 1.375-0.62 2.606-1.595 3.428l-0.007 0.006zM64 704.64l21.394 34.651c0.606 1.111 0.962 2.432 0.962 3.837 0 2.032-0.745 3.89-1.976 5.316l0.009-0.010-10.697 11.063c-1.388 1.257-3.239 2.026-5.269 2.026-1.424 0-2.76-0.379-3.912-1.041l0.038 0.020-34.743-21.394c-1.448-0.762-2.419-2.256-2.419-3.978 0-1.373 0.617-2.601 1.589-3.423l0.007-0.005 27.886-27.703c0.81-0.945 2.005-1.54 3.339-1.54 1.61 0 3.018 0.867 3.781 2.16l0.011 0.020zM291.474 859.429l-21.486-34.651c-0.583-1.108-0.925-2.421-0.925-3.813 0-2.034 0.73-3.897 1.942-5.342l-0.011 0.013 10.88-11.063c1.359-1.295 3.202-2.091 5.231-2.091 1.445 0 2.795 0.404 3.945 1.105l-0.033-0.019 34.743 21.394c1.417 0.771 2.363 2.249 2.363 3.948 0 1.389-0.632 2.63-1.624 3.452l-0.007 0.006-27.429 27.886c-0.827 1.061-2.105 1.736-3.541 1.736-1.776 0-3.311-1.034-4.036-2.532l-0.012-0.027zM134.583 634.331l21.394 34.651c0.628 1.127 0.997 2.472 0.997 3.903 0 2.002-0.723 3.834-1.921 5.252l0.010-0.012-10.88 10.789c-1.388 1.257-3.239 2.026-5.269 2.026-1.424 0-2.76-0.379-3.912-1.041l0.038 0.020-34.469-21.394c-1.448-0.762-2.419-2.256-2.419-3.978 0-1.373 0.617-2.601 1.589-3.423l0.007-0.005 27.886-27.429c0.824-0.81 1.955-1.31 3.203-1.31 1.543 0 2.908 0.765 3.736 1.936l0.010 0.014z" />
<glyph unicode="&#xe909;" horiz-adv-x="964" d="M649.746-4.223c0-21.531-81.452-38.985-181.929-38.985s-181.929 17.454-181.929 38.985c0 21.531 81.452 38.985 181.929 38.985s181.929-17.454 181.929-38.985z" />
<glyph unicode="&#xe90a;" horiz-adv-x="964" d="M483.411 674.112c0-64.592-52.362-116.954-116.954-116.954s-116.954 52.362-116.954 116.954c0 64.592 52.362 116.954 116.954 116.954s116.954-52.362 116.954-116.954z" />
<glyph unicode="&#xe90b;" horiz-adv-x="964" d="M467.817 941.807c-189.726 0-343.066-153.34-343.066-343.066s187.127-447.025 283.289-569.178c31.188-36.386 85.766-36.386 116.954 0 98.761 124.751 285.888 379.452 285.888 571.777 0 187.127-153.34 340.467-343.066 340.467zM366.457 572.751c-54.579 0-101.36 44.183-101.36 101.36 0 54.579 44.183 101.36 101.36 101.36 54.579 0 101.36-44.183 101.36-101.36s-44.183-101.36-101.36-101.36z" />
<glyph unicode="&#xe90c;" horiz-adv-x="931" d="M661.98-4.525c0-21.422-81.041-38.788-181.010-38.788s-181.010 17.366-181.010 38.788c0 21.422 81.041 38.788 181.010 38.788s181.010-17.366 181.010-38.788z" />
<glyph unicode="&#xe90d;" horiz-adv-x="931" d="M480.97 649.697c0-64.266-52.098-116.364-116.364-116.364s-116.364 52.098-116.364 116.364c0 64.266 52.098 116.364 116.364 116.364s116.364-52.098 116.364-116.364z" />
<glyph unicode="&#xe90e;" horiz-adv-x="931" d="M480.97 939.313c-188.768 0-341.333-152.566-341.333-341.333s186.182-444.768 281.859-566.303c31.030-36.202 85.333-36.202 116.364 0 98.263 121.535 281.859 374.949 281.859 566.303 2.586 188.768-152.566 341.333-338.747 341.333zM380.121 569.535c-54.303 0-100.848 43.96-100.848 100.848 0 54.303 43.96 100.848 100.848 100.848 54.303 0 100.848-43.96 100.848-100.848 0-54.303-46.545-100.848-100.848-100.848z" />
<glyph unicode="&#xe90f;" glyph-name="mesa-de-trabajo" d="M511.826 637.843c43.086 0 78.015 34.927 78.015 78.011 0 43.094-34.929 78.020-78.015 78.020s-78.013-34.925-78.013-78.020c0-43.084 34.927-78.011 78.013-78.011zM662.662 401.989c5.298 44.543 12.181 184.031-103.717 222.423-2.324 0.777-20.614 7.407-27.686 9.129l-19.22-19.782-19.043 19.774c-0.088-0.017-0.135-0.017-0.202-0.032-7.245-1.745-25.444-8.376-27.545-9.104-116.542-40.743-109.263-178.28-103.773-222.425h-70.985v-52.12h24.893v-245.827h48.393v245.844h50.070c-3.719-6.511-5.507-14.154-4.627-22.066l23.051-191.333c2.054-18.547 17.768-32.294 36.051-32.294 1.324 0 2.665 0.080 4.001 0.208 19.927 2.235 34.304 20.161 32.092 40.082l-20.066 164.177 27.581 11.274 26.682-11.114-19.911-164.503c-2.172-19.938 12.236-37.845 32.151-40 1.347-0.156 2.654-0.238 3.959-0.238 18.288 0 34.024 13.764 36.062 32.338l22.872 191.469c0.869 7.864-0.907 15.505-4.618 22.003h50.756v-245.817h48.38v245.813h25.249v52.12h-70.85zM431.98 401.983h-9.279c-1.958 13.051-9.352 72.553 9.279 116.999v-116.999zM512.113 459.364h-0.347l-18.919 25.76 18.919 125.757h0.347l18.719-125.757-18.719-25.76zM601.484 401.983h-9.805v117.399c19.319-44.631 11.76-104.363 9.805-117.399zM226.723 675.646c0-41.278-33.462-74.74-74.74-74.74s-74.74 33.462-74.74 74.74c0 41.278 33.462 74.74 74.74 74.74s74.74-33.462 74.74-74.74zM324.005 470.362c-89.075-6.599-100.677 24.544-122.385 82.697-7.58 21.268-28.602 35.647-48.647 40.598 0 0-7.858 2.36-16.21 2.198-8.053-0.185-16.983-2.052-16.983-2.052l-0.219-0.015c-25.16-6.123-51.923-26.581-51.994-57.317l-0.16-164.937c-0.044-35.828 24.485-54.941 57.473-54.987 0.48 0 46.090 0.055 46.090 0.055s48.94 1.579 44.467-50.782c-3.202-37.483-8.112-79.348-12.019-124.25-1.734-19.953 13.025-37.565 33.010-39.31 1.076-0.097 2.134-0.133 3.193-0.133 18.61 0 34.458 14.219 36.112 33.115 17.141 196.155 9.476 208.153 4.199 220.515-5.715 10.767-16.983 25.693-75.374 29.766l0.061 48.399c20.25-15.507 47.483-22.828 88.917-22.828 10.624 0 22.146 0.472 34.759 1.383 15.96 1.185 27.954 15.13 26.787 31.098-1.185 15.981-15.111 27.941-31.077 26.787zM174.188 301.821c-6.022 0-19.936 0-49.529 0-76.567 0-68.804 69.244-68.804 69.244v145.756c0 15.419-12.493 27.907-27.928 27.907-15.427 0-27.926-12.489-27.926-27.907v-242.914c0-9.091 4.429-17.107 11.173-22.211v-146.904h33.498v141.166h100.536v-141.166h33.494v141.637c13.251 2.179 23.392 13.6 23.392 27.461 0.002 15.461-12.47 27.93-27.905 27.93zM946.761 675.646c0-41.278-33.462-74.74-74.74-74.74s-74.74 33.462-74.74 74.74c0 41.278 33.462 74.74 74.74 74.74s74.74-33.462 74.74-74.74zM808.57 265.819c-4.473 52.36 44.467 50.782 44.467 50.782s45.612-0.055 46.090-0.055c32.989 0.046 57.52 19.159 57.473 54.987l-0.16 164.937c-0.072 30.736-26.834 51.194-51.994 57.317l-0.219 0.015c0 0-8.929 1.867-16.983 2.052-8.352 0.162-16.21-2.198-16.21-2.198-20.045-4.951-41.069-19.33-48.647-40.598-21.708-58.153-33.309-89.296-122.385-82.697-15.968 1.154-29.89-10.807-31.075-26.785-1.168-15.97 10.828-29.915 26.787-31.098 12.613-0.914 24.135-1.383 34.759-1.383 41.436 0 68.669 7.321 88.917 22.828l0.061-48.399c-58.387-4.073-69.659-18.997-75.372-29.766-5.279-12.362-12.941-24.358 4.197-220.515 1.657-18.898 17.503-33.115 36.112-33.115 1.061 0 2.118 0.036 3.195 0.133 19.98 1.745 34.742 19.357 33.008 39.31-3.907 44.9-8.82 86.768-12.021 124.248zM996.076 544.727c-15.436 0-27.926-12.489-27.926-27.907v-145.756c0 0 7.763-69.244-68.806-69.244-29.595 0-43.507 0-49.527 0-15.438 0-27.911-12.47-27.909-27.933 0-13.861 10.144-25.282 23.392-27.461v-141.637h33.496v141.166h100.534v-141.166h33.498v146.904c6.742 5.104 11.173 13.118 11.173 22.211v242.916c0 15.419-12.497 27.907-27.924 27.907z" />
<glyph unicode="&#xe910;" glyph-name="paneles" d="M748.062 476.5c-13.342 108.86-99.258 194.56-208.152 207.626-9.376 1.070-18.804 1.606-28.242 1.608-96.236-0.148-182.888-58.308-219.484-147.314s-15.914-191.298 52.386-259.096c36.32-34.782 57.12-82.714 57.714-133v-27.466h219.428v27.608c0.166 49.334 20.236 96.512 55.662 130.848 53.508 51.626 79.68 125.372 70.686 199.178v0.008zM512-64c23.24 0.026 43.95 14.67 51.724 36.572h-103.446c7.772-21.902 28.482-36.546 51.722-36.572zM420.572 27.428c0.014-10.094 8.192-18.272 18.286-18.286h146.286c10.094 0.014 18.272 8.192 18.286 18.286v54.858h-182.858v-54.858zM512 795.428c20.198 0 36.572 16.374 36.572 36.572v91.428c0 20.198-16.374 36.572-36.572 36.572s-36.572-16.374-36.572-36.572v-91.428c0-20.198 16.374-36.572 36.572-36.572zM203.358 704.92c14.472-13.822 37.252-13.822 51.724 0 6.86 6.858 10.714 16.162 10.714 25.862s-3.854 19.004-10.714 25.862l-64.654 64.642c-6.856 6.86-16.158 10.714-25.856 10.714s-19-3.854-25.858-10.714c-6.86-6.856-10.714-16.158-10.714-25.858s3.854-19 10.714-25.858l64.644-64.65zM164.572 448c0 20.198-16.374 36.572-36.572 36.572h-91.428c-20.19-0.020-36.552-16.382-36.572-36.572 0.020-20.19 16.382-36.552 36.572-36.572h91.428c20.198 0 36.572 16.374 36.572 36.572zM238.712 200.602c-12.64 3.378-26.12-0.252-35.354-9.522l-64.642-64.652c-6.86-6.856-10.714-16.158-10.714-25.858s3.854-19 10.714-25.858c14.468-13.822 37.246-13.822 51.714 0l64.652 64.642c9.268 9.234 12.9 22.714 9.522 35.354s-13.252 22.516-25.892 25.894zM820.642 191.080c-9.234 9.268-22.714 12.9-35.354 9.522s-22.512-13.25-25.89-25.89 0.252-26.12 9.522-35.354l64.652-64.642c14.468-13.822 37.246-13.822 51.714 0 6.86 6.856 10.714 16.158 10.714 25.858s-3.854 19-10.714 25.858l-64.644 64.648zM987.428 484.572h-91.428c-20.198 0-36.572-16.374-36.572-36.572s16.374-36.572 36.572-36.572h91.428c20.198 0 36.572 16.374 36.572 36.572s-16.374 36.572-36.572 36.572zM820.642 704.92l64.642 64.652c9.238 9.238 12.846 22.702 9.464 35.322s-13.238 22.476-25.858 25.858c-12.62 3.382-26.084-0.226-35.322-9.464l-64.652-64.642c-6.86-6.858-10.714-16.162-10.714-25.862s3.854-19.004 10.714-25.862c14.474-13.824 37.256-13.824 51.726-0.002z" />
<glyph unicode="&#xe911;" glyph-name="talleres" d="M560.741 565.645c6.121 0 12.021-0.984 17.704-2.623l106.006 129.94c6.776 8.306 19.343 9.836 27.54 2.841 7.978-6.666 9.071-18.578 2.404-26.666l-104.804-128.519c7.104-9.836 11.366-21.967 11.366-35.082 0-24.371-14.644-45.463-35.518-54.86h411.239c15.081 0 27.321 12.239 27.321 27.321v345.887c0 15.081-12.24 27.321-27.321 27.321h-522.382c-15.081 0-27.321-12.24-27.321-27.321v-227.094l24.698-31.255h89.067v0.109zM331.898 826.836c0-61.805-50.103-111.908-111.908-111.908s-111.908 50.103-111.908 111.908c0 61.805 50.103 111.908 111.908 111.908s111.908-50.103 111.908-111.908zM334.74-15.423c0-15.082-12.24-27.321-27.321-27.321h-45.9c-15.081 0-27.321 12.239-27.321 27.321v229.061c0 8.087-6.557 14.644-14.644 14.644v0c-8.087 0-14.644-6.557-14.644-14.644v-227.968c0-15.629-12.786-28.414-28.414-28.414h-44.916c-15.081 0-27.321 12.239-27.321 27.321l-0.219 552.982c0 7.431-6.011 13.55-13.551 13.55v0c-7.431 0-13.551-6.011-13.551-13.55v-212.669c0-15.081-12.24-27.321-27.321-27.321h-22.294c-15.081 0-27.321 12.24-27.321 27.321v291.572c0 34.643 28.086 62.62 62.62 62.62h248.842c26.664 0 51.91-12.24 68.522-33.113l80.979-102.181c0 0 63.385 0 99.886-0.109 15.081 0 27.321-12.24 27.321-27.321v-21.748c0-15.081-12.24-27.321-27.321-27.321h-118.245c-11.693 0-22.731 5.355-29.944 14.536l-49.834 64.041c-2.514 3.279-6.557 5.246-10.71 5.246h-3.388c-7.431 0-13.55-6.011-13.55-13.55l-0.438-552.984z" />
<glyph unicode="&#xe912;" glyph-name="actividades" d="M373.086 395.064c0 12.827-10.405 23.22-23.243 23.22h-81.108c-12.823 0-23.23-10.392-23.23-23.22v-81.097c0-12.844 10.407-23.24 23.23-23.24h81.108c12.838 0 23.243 10.396 23.243 23.24v81.097zM575.785 395.064c0 12.827-10.407 23.22-23.22 23.22h-81.118c-12.823 0-23.23-10.392-23.23-23.22v-81.097c0-12.844 10.407-23.24 23.23-23.24h81.118c12.813 0 23.22 10.396 23.22 23.24v81.097zM778.495 395.064c0 12.827-10.407 23.22-23.23 23.22h-81.108c-12.838 0-23.243-10.392-23.243-23.22v-81.097c0-12.844 10.405-23.24 23.243-23.24h81.108c12.823 0 23.23 10.396 23.23 23.24v81.097zM373.086 192.344c0 12.848-10.405 23.232-23.243 23.232h-81.108c-12.823 0-23.23-10.384-23.23-23.232v-81.083c0-12.836 10.407-23.23 23.23-23.23h81.108c12.838 0 23.243 10.396 23.243 23.23v81.083zM575.785 192.344c0 12.848-10.407 23.232-23.22 23.232h-81.118c-12.823 0-23.23-10.384-23.23-23.232v-81.083c0-12.836 10.407-23.23 23.23-23.23h81.118c12.813 0 23.22 10.396 23.22 23.23v81.083zM778.495 192.344c0 12.848-10.407 23.232-23.22 23.232h-81.118c-12.838 0-23.243-10.384-23.243-23.232v-81.083c0-12.836 10.405-23.23 23.243-23.23h81.118c12.813 0 23.22 10.396 23.22 23.23v81.083zM923.524 845.981v-123.87c0-55.988-45.42-101.105-101.399-101.105h-63.965c-55.984 0-102.005 45.117-102.005 101.105v124.314h-288.309v-124.314c0-55.988-46.020-101.105-101.995-101.105h-63.978c-55.977 0-101.395 45.117-101.395 101.105v123.87c-48.925-1.475-89.127-41.958-89.127-91.718v-725.935c0-50.695 41.090-92.331 91.785-92.331h817.728c50.62 0 91.785 41.721 91.785 92.331v725.935c0 49.76-40.2 90.243-89.125 91.718zM893.814 73.534c0-21.908-17.763-39.682-39.68-39.682h-686.015c-21.917 0-39.68 17.774-39.68 39.682v374.971c0 21.917 17.761 39.691 39.68 39.691h686.013c21.917 0 39.68-17.774 39.68-39.691l0.002-374.971zM201.648 687.413h63.271c19.205 0 34.776 15.548 34.776 34.753v203.069c0 19.207-15.571 34.765-34.776 34.765h-63.271c-19.207 0-34.776-15.559-34.776-34.765v-203.069c0-19.205 15.569-34.753 34.776-34.753zM757.346 687.413h63.271c19.192 0 34.763 15.548 34.763 34.753v203.069c0.002 19.207-15.569 34.765-34.763 34.765h-63.271c-19.202 0-34.774-15.559-34.774-34.765v-203.069c0-19.205 15.571-34.753 34.774-34.753z" />
<glyph unicode="&#xe913;" glyph-name="aliado" d="M691.425 735.444c-2.418 2.44-5.425 4.205-8.671 5.229l-195.536 61.395c-78.193 24.554-129.065-18.279-142.769-32.027-7.996-7.996-14.118-16.427-17.255-23.769l-87.104-204.883c-4.989-11.721-3.29-27.342 4.532-42.92 11.198-22.244 31.373-38.279 55.491-44.053 26.994-6.471 54.99 2.309 76.907 24.205 5.73 5.73 10.61 12.048 13.486 17.408l29.281 54.314c4.815 8.998 11.808 18.323 19.172 25.687 25.12 25.142 37.059 13.639 42.136 8.758 43.813-42.288 273.511-272.966 273.511-272.966 8.17-8.17 6.471-23.66-3.747-33.857-10.196-10.174-25.708-11.917-33.857-3.791l-64.532 64.511c-8.323 8.344-21.743 8.344-30.066 0-8.323-8.257-8.323-21.743 0-30.044l64.532-64.554c8.148-8.126 6.449-23.617-3.747-33.791-10.196-10.218-25.73-11.917-33.835-3.791l-64.554 64.511c-8.323 8.323-21.787 8.323-30.066 0-8.323-8.257-8.323-21.743 0-30.066l64.532-64.532c8.148-8.148 6.384-23.639-3.791-33.835-10.174-10.174-25.665-11.917-33.835-3.747l-64.532 64.511c-8.279 8.301-21.765 8.301-30.066 0-8.279-8.301-8.279-21.787 0-30.044l64.532-64.554c8.17-8.17 6.427-23.66-3.747-33.857-10.24-10.196-25.73-11.917-33.857-3.769l-78.563 78.628c11.22 16.863 8.17 41.33-8.475 58.040-18.649 18.628-47.343 20.349-63.944 3.704 16.602 16.623 14.968 45.273-3.726 63.944-18.693 18.649-47.321 20.371-63.922 3.769 16.602 16.602 14.924 45.229-3.791 63.879-18.649 18.693-47.277 20.392-63.922 3.791 16.645 16.602 14.924 45.229-3.747 63.944-17.473 17.473-43.508 19.848-60.437 6.536l-127.213 127.213c-8.301 8.323-21.787 8.323-30.088 0-8.279-8.279-8.279-21.765 0-30.088l126.886-126.864-37.626-37.626c-16.602-16.58-14.924-45.208 3.791-63.922 18.649-18.649 47.277-20.371 63.901-3.747-16.623-16.623-14.924-45.229 3.769-63.922 18.649-18.628 47.299-20.392 63.922-3.769-16.623-16.623-14.946-45.229 3.747-63.901 18.693-18.693 47.321-20.392 63.922-3.791-16.602-16.58-14.924-45.186 3.769-63.901 18.671-18.649 47.277-20.371 63.922-3.747l39.739 39.717 78.018-77.997c24.902-24.902 67.016-23.159 93.988 3.769 13.137 13.137 20.153 29.913 21.133 46.515 16.602 0.98 33.399 8.018 46.515 21.177 13.159 13.137 20.218 29.913 21.22 46.515 16.58 0.98 33.312 7.996 46.515 21.155 13.137 13.159 20.175 29.913 21.133 46.537 16.623 0.959 33.399 7.974 46.558 21.177 26.928 26.928 28.584 69.108 3.747 93.966l-32.898 32.92 135.078 135.056c8.301 8.279 8.301 21.765 0 30.066l-195.471 195.58zM1011.56 687.905l-172.137 172.137c-16.602 16.623-43.552 16.623-60.175 0l-60.175-60.131c-16.602-16.602-16.602-43.552 0-60.153l172.159-172.181c16.623-16.602 43.574-16.602 60.175 0l60.153 60.153c16.58 16.623 16.58 43.574 0 60.175zM921.21 600.235c-19.26 0-34.902 15.621-34.902 34.902s15.643 34.924 34.902 34.924c19.281 0 34.924-15.621 34.924-34.924-0.022-19.26-15.643-34.902-34.924-34.902z" />
<glyph unicode="&#xe914;" glyph-name="charlas" d="M946.108 613.533c-77.706 13.856-151.266 50.6-209.858 109.1-58.529 58.559-95.231 132.078-109.038 209.801 78.679 49.291 192.735 31.833 271.735-47.141 78.947-78.973 96.395-193.050 47.16-271.761zM891.816 559.23c-74.631 20.858-144.591 59.556-202.030 116.937-57.376 57.439-96.083 127.397-116.837 201.998-49.223-78.711-31.768-192.729 47.143-271.698 79.002-78.939 192.985-96.425 271.724-47.236zM579.333 209.451c-98.157 0-168.338-61.342-230.265-115.444-68.417-59.814-127.72-111.677-214.97-84.786-17.263 12.712-17.775 23.101-17.967 26.629-1.222 23.626 27.401 55.324 41.459 67.007 1.734 1.415 2.72 3.337 4.076 5.067 23.038-8.020 49.507-3.387 67.965 15.020l446.938 367.908c-36.966 15.692-72.193 38.408-102.898 69.154-30.755 30.742-53.404 66.008-69.070 102.905l-367.872-446.979c-16.366-16.364-21.114-39.010-16.654-60.057-1.38-0.841-2.923-1.222-4.206-2.256-7.030-5.775-68.446-58.015-65.397-120.842 1.092-22.089 10.721-53.978 50.606-80.679l7.864-3.842c25.578-8.536 49.416-12.257 71.82-12.257 87.41 0 152.616 56.982 211.565 108.522 58.369 51.027 113.526 99.218 187.008 99.218 169.378 0 300.488-181.497 301.831-183.287 10.458-14.957 31.072-18.286 45.767-7.778 14.827 10.469 18.286 30.948 7.828 45.756-6.1 8.608-151.844 211.019-355.428 211.019z" />
<glyph unicode="&#xe915;" glyph-name="emprendimiento" d="M489.757 354.516c5.687 6.289 13.766 9.875 22.242 9.875s16.562-3.586 22.25-9.875l80.945-89.453 106.687 113.765-137.679 183.57c-11.492 15.328-26.117 26.555-42.203 32.812v144.125h211c0.016 0 0.031 0 0.047 0 16.562 0 30 13.43 30 30 0 8.75-3.75 16.633-9.734 22.117l-58.219 58.211 59.125 59.125c8.578 8.578 11.141 21.484 6.5 32.695-4.641 11.203-15.586 18.516-27.719 18.516h-241c-16.562 0-30-13.43-30-30v-334.788c-16.078-6.258-30.703-17.484-42.195-32.812l-137.679-183.57 106.687-113.773zM489.757 354.516M1017.998-15.999l-259.57 346.093-121.75-129.836c-5.672-6.047-13.594-9.477-21.883-9.477-0.086 0-0.18 0-0.266 0-8.383 0.078-16.352 3.656-21.977 9.875l-80.555 89.023-80.555-89.031c-5.617-6.211-13.594-9.789-21.977-9.867-0.086 0-0.18 0-0.266 0-8.289 0-16.211 3.422-21.883 9.477l-121.742 129.836-259.578-346.093c-6.82-9.094-7.914-21.25-2.836-31.414 5.086-10.164 15.477-16.586 26.836-16.586h963.998c11.367 0 21.75 6.422 26.836 16.586 5.078 10.164 3.984 22.32-2.836 31.414zM1017.998-15.999" />
<glyph unicode="&#xe916;" glyph-name="firmas-moda" d="M696.094 538h-368.188c-55.034-75.066-85.906-166.524-85.906-259.716v-10.284c0-16.582 13.418-30 30-30h207.624c-20.062-146.218-151.114-179.458-157.116-183.552-15.704-5.214-24.2-22.208-18.956-37.94 5.212-15.634 22.13-24.224 37.94-18.956 6.126 3.084 80.886 20.168 140.508 96.23v-127.782c0-16.582 13.418-30 30-30s30 13.418 30 30v127.782c60.296-76.926 134.506-93.212 140.508-96.23 15.824-5.274 32.732 3.332 37.94 18.956 5.244 15.732-3.252 32.724-18.956 37.94-6.014 4.106-137.058 37.344-157.116 183.552h207.624c16.582 0 30 13.418 30 30v10.284c0 93.194-30.872 184.65-85.906 259.716zM736.824 795.286c-29.092 28.448-67.412 44.062-108.34 42.686-8.056 0.088-13.448 3.75-16.846 7.060-6.034 5.918-9.638 14.53-9.638 23.086v61.882c0 16.582-13.418 30-30 30h-120c-16.582 0-30-13.418-30-30v-61.882c0-8.554-3.604-17.168-9.638-23.086-3.398-3.31-11.132-6.972-16.816-7.060-41.778 1.318-79.248-14.238-108.37-42.686-29.122-28.478-45.176-66.564-45.176-107.286 0-7.968 3.164-15.586 8.79-21.21l68.788-68.79h384.844l68.79 68.79c5.624 5.624 8.788 13.242 8.788 21.21 0 40.722-16.054 78.808-45.176 107.286z" />
</font>
</defs>
</svg>
